<svg width="225.842163" height="228.146042" viewBox="0 0 225.842 228.146" fill="none" xmlns="http://www.w3.org/2000/svg" xmlns:xlink="http://www.w3.org/1999/xlink">
	<desc>
			Created with Pixso.
	</desc>
	<defs/>
	<path id="Ellipse 1" d="M225.842 70.0887C212.62 40.3392 188.557 18.7516 160.361 7.90674C129.987 -3.80951 97.7072 -2.05872 70.1014 10.2101C40.3392 23.403 18.7516 47.4667 7.90686 75.6622C-3.80945 106.036 -2.05872 138.316 10.2102 165.922C23.4031 195.684 47.4667 217.272 75.651 228.146L76.4958 225.949C46.7168 214.496 24.3844 192.022 12.3602 164.967C-0.625732 135.823 -0.525757 104.14 10.1028 76.5069C21.5281 46.7167 44.002 24.3843 71.057 12.3602C100.201 -0.625824 131.884 -0.525787 159.517 10.1027C189.307 21.528 211.639 44.0018 223.692 71.0445L225.842 70.0887Z" fill="#E9F4F5" fill-opacity="1.000000" fill-rule="evenodd"/>
</svg>
