<svg width="228.570190" height="45.000000" viewBox="0 0 228.57 45" fill="none" xmlns="http://www.w3.org/2000/svg" xmlns:xlink="http://www.w3.org/1999/xlink">
	<desc>
			Created with Pixso.
	</desc>
	<defs/>
	<path id="Vector" d="M27.8322 28.942Q27.699 29.2065 27.5317 29.4538C26.9843 30.2637 26.1893 30.8928 25.1472 31.3408Q23.6104 31.9871 21.3848 31.9871C20.7312 31.9871 20.0864 31.944 19.4506 31.8578C18.8324 31.7717 18.2318 31.651 17.6488 31.4959C17.0836 31.3236 16.5449 31.1168 16.0326 30.8755L16.0326 27.2306C16.9335 27.6098 17.8608 27.963 18.8147 28.2905C19.7861 28.6007 20.7489 28.7558 21.7028 28.7558C22.3563 28.7558 22.8773 28.6696 23.266 28.4973C23.6722 28.325 23.9636 28.0923 24.1404 27.7993C24.3346 27.5063 24.4318 27.1703 24.4318 26.7912C24.4318 26.3259 24.2639 25.9295 23.9283 25.6021C23.6104 25.2746 23.1776 24.973 22.63 24.6973C22.0825 24.4043 21.4554 24.0941 20.7489 23.7667C20.3073 23.5599 19.8303 23.3186 19.3181 23.0429C18.8058 22.7499 18.3113 22.3966 17.8344 21.983C17.3751 21.5522 16.9954 21.0352 16.6951 20.432Q16.2446 19.5272 16.2446 18.2606Q16.2446 16.644 16.9781 15.4964Q16.9954 15.4695 17.0129 15.4429Q17.1995 15.1638 17.421 14.9161Q18.1436 14.1082 19.2386 13.6334Q20.6959 13.0129 22.6566 13.0129C23.6458 13.0129 24.5819 13.125 25.4651 13.349C26.366 13.573 27.3021 13.8918 28.2737 14.3055L26.9753 17.3558Q25.6771 16.8388 24.6438 16.5544C23.9548 16.3649 23.2483 16.2701 22.524 16.2701C22.0295 16.2701 21.6056 16.3476 21.2523 16.5027C20.899 16.6578 20.6252 16.8733 20.4309 17.149C20.2543 17.4247 20.166 17.7522 20.166 18.1313Q20.166 18.5276 20.3154 18.8559Q20.4097 19.0629 20.5634 19.2429C20.8284 19.5358 21.2258 19.8202 21.7557 20.0959C22.2856 20.3717 22.948 20.6991 23.7429 21.0782C24.7144 21.5263 25.5358 21.9916 26.207 22.4742C26.8959 22.9567 27.4258 23.5254 27.7968 24.1803C28.1677 24.8352 28.3531 25.6451 28.3531 26.6102Q28.3531 27.9073 27.8322 28.942ZM37.7798 16.7095Q38.6807 16.2701 39.8201 16.2701C40.5089 16.2701 41.2067 16.3907 41.9132 16.632Q42.9995 16.9939 44.0593 17.485L45.3577 14.3055C44.4921 13.9091 43.5824 13.5989 42.6285 13.3748C41.6924 13.1336 40.7562 13.0129 39.8201 13.0129C38.3893 13.0129 37.1174 13.2456 36.0046 13.7109C34.9094 14.1762 33.9821 14.8311 33.2225 15.6755C32.4807 16.52 31.9154 17.5281 31.5269 18.7C31.1382 19.8547 30.944 21.1299 30.944 22.5259C30.944 24.4216 31.2443 26.0846 31.8448 27.515C32.4453 28.9281 33.3727 30.0311 34.6268 30.8238C35.8987 31.5993 37.5061 31.9871 39.4491 31.9871C40.4559 31.9871 41.3656 31.9095 42.1781 31.7544C42.9907 31.5993 43.812 31.3581 44.6422 31.0306L44.6422 27.7476C43.7413 28.0578 42.9023 28.2991 42.1251 28.4714C41.3656 28.6438 40.5972 28.7299 39.8201 28.7299C38.7249 28.7299 37.824 28.4887 37.1174 28.0061C36.4109 27.5236 35.8898 26.8256 35.5542 25.9123C35.2362 24.9817 35.0773 23.8615 35.0773 22.5517C35.0773 21.5866 35.1744 20.7163 35.3688 19.9408C35.5807 19.1653 35.8898 18.5104 36.296 17.9762Q36.7362 17.3788 37.3146 16.9836Q37.537 16.8316 37.7798 16.7095ZM9.14099 31.7286L5.14014 31.7286L5.14014 16.5286L0 16.5286L0 13.2715L14.2812 13.2715L14.2812 16.5286L9.14099 16.5286L9.14099 31.7286Z" fill="#FFFFFF" fill-opacity="1.000000" fill-rule="evenodd"/>
	<path id="Vector 1" d="M83.9048 3.85715C85.0369 2.69388 87.6785 0.808167 89.1879 2.57144C89.4395 2.63266 90.0181 3.37958 90.3199 5.87756C90.3828 6.18369 91.0369 6.75919 93.1501 6.61224C93.3387 5.87756 93.452 4.29797 92.3954 3.85715C91.0747 3.30612 93.3387 1.10205 97.1124 0.36734C100.886 -0.36734 105.414 0.36734 108.245 3.30612C108.496 3.55103 108.584 4.18774 106.924 4.77551C106.472 4.93542 106.056 6.90613 108.622 6.61224C109.062 6.55103 109.98 6.06122 110.131 4.59183C110.32 2.7551 112.395 1.10205 114.282 2.57144C116.169 4.0408 116.546 4.59183 115.414 5.14285C114.984 5.35248 113.925 5.69504 112.768 6.0694C110.883 6.67899 108.739 7.37289 108.622 7.71429C108.471 8.15509 112.081 9.73468 113.905 10.4694C114.471 10.6974 114.66 11.902 113.15 11.7551C112.836 11.6939 111.829 11.3878 110.32 10.6531C110.383 11.2041 110.207 12.6367 108.999 13.9592C108.811 14.3265 108.886 15.3551 110.697 16.5306C111.704 20.3265 111.905 29.8286 104.66 37.4694L104.66 29.7551L103.905 29.7551L103.905 23.8776L96.1689 23.8776L96.1689 29.7551L95.4143 29.7551L95.4143 37.4694C92.3954 34.6531 87.1124 26.4122 90.1312 15.9796C90.6973 15.551 91.6029 14.3633 90.6973 13.0408C90.3828 12.9796 89.7916 12.4531 89.9426 10.8367C89.1879 11.1429 87.4897 11.7551 86.735 11.7551C85.7916 11.7551 85.7916 10.4694 87.301 9.91837C87.4967 9.84695 87.7175 9.76941 87.9531 9.68686L88.0006 9.67026C89.5802 9.11694 91.7772 8.34741 91.452 7.71429C91.3152 7.44791 90.1862 7.08493 88.8384 6.65164C86.4691 5.88989 83.4237 4.91083 83.9048 3.85715ZM95.2256 9.36734C92.8105 8.04489 92.5841 10.0408 92.7727 11.2041C93.1501 13.9592 98.0558 19.1021 100.131 19.1021C102.207 19.1021 108.056 14.1429 107.678 10.6531C107.339 7.51535 104.102 10.1684 101.943 11.9372C101.701 12.1357 101.473 12.323 101.263 12.4898C99.9625 13.5258 99.1064 12.686 97.9054 11.5078C97.1901 10.8061 96.3524 9.98434 95.2256 9.36734Z" fill="#FFFFFF" fill-opacity="1.000000" fill-rule="evenodd"/>
	<path id="Vector 1" d="M66.3577 12.3061C68.4331 9.18369 73.3387 2.71835 76.3577 1.83673C79.3766 0.955109 83.4017 0.244904 85.0369 0C84.3451 0.489807 82.8483 1.61633 82.3954 2.20407C82.2347 2.41266 81.8154 2.4584 81.1938 2.52621C79.6259 2.69727 76.7701 3.00882 73.5275 6.42856C68.9991 11.2041 67.6785 13.2245 67.4897 14.3265L88.2445 14.3265C87.5526 14.8163 86.2822 16.7878 86.735 20.7551C86.8934 22.1434 86.9633 23.0423 87.0188 23.758C87.1616 25.599 87.2104 26.2282 88.4331 30.8571L78.8105 30.8571C78.6218 32.2041 80.6595 34.8979 90.3199 34.8979C90.7601 35.8163 92.0181 37.9469 93.5275 39.1224L60.1312 39.1224L60.1312 40.5918L67.4897 40.5918L67.4897 44.2653L97.6785 44.2653L97.1124 43.7143L97.1124 24.9796L102.961 24.9796L102.961 43.7143L102.395 44.2653L116.358 44.2653L116.358 45L57.1124 45L56.3577 44.2653L56.3577 19.2857C56.3577 17.6327 56.735 14.2531 58.2445 13.9592C59.7539 13.6653 62.3954 13.5918 63.5275 13.5918C63.7162 13.2857 63.8671 12.6 62.9614 12.3061C62.6136 12.1932 62.1411 12.1671 61.5986 12.1371C60.3755 12.0693 58.7968 11.9819 57.4897 10.8367C57.9929 9.73468 59.6029 7.82449 62.0181 9C63.5848 9.7626 64.186 10.5257 64.6655 11.1344C65.1101 11.6986 65.4501 12.1303 66.3577 12.3061ZM69.3766 17.8163L59.7539 17.8163L59.7539 20.0204C62.7727 22.6653 71.8293 23.6939 75.9803 23.8776L69.3766 17.8163Z" fill="#FFCE24" fill-opacity="1.000000" fill-rule="evenodd"/>
	<path id="Vector" d="M145.375 22.4871Q145.375 24.6327 144.818 26.3905C144.465 27.5451 143.917 28.5447 143.176 29.3891C142.451 30.2336 141.515 30.8798 140.367 31.3279C139.237 31.776 137.903 32 136.366 32C134.829 32 133.487 31.776 132.339 31.3279Q130.71 30.6574 129.619 29.486L129.619 29.4858L129.619 29.4857Q129.574 29.4378 129.53 29.3891C128.806 28.5447 128.259 27.5365 127.888 26.3646Q127.358 24.6068 127.358 22.4612C127.358 20.5483 127.676 18.8853 128.312 17.4721Q128.84 16.3286 129.662 15.4634L129.662 15.4634L129.662 15.4633Q130.364 14.7248 131.279 14.1891C132.621 13.3964 134.326 13 136.393 13C138.442 13 140.129 13.3964 141.453 14.1891C142.778 14.9646 143.759 16.0676 144.394 17.498C145.048 18.9111 145.375 20.5742 145.375 22.4871ZM160.978 31.7415L166.065 31.7415L166.065 13.2844L162.462 13.2844L162.462 22.0218L162.515 23.3143C162.532 23.7279 162.541 24.1501 162.541 24.581C162.559 24.9946 162.577 25.4168 162.594 25.8476C162.612 26.2612 162.63 26.6834 162.647 27.1143L162.568 27.1143L154.354 13.2844L149.293 13.2844L149.293 31.7415L152.87 31.7415L152.87 23.0558C152.853 22.6077 152.835 22.1682 152.817 21.7374C152.8 21.2893 152.773 20.8499 152.738 20.419C152.72 19.971 152.703 19.5315 152.685 19.1007C152.667 18.6526 152.65 18.2132 152.632 17.7823L152.738 17.7823L160.978 31.7415ZM170.847 31.7415L170.847 13.2844L174.848 13.2844L174.848 28.5102L182.532 28.5102L182.532 31.7415L170.847 31.7415ZM184.292 31.7415L192.903 31.7415L192.903 29.5184L190.598 28.4843L190.598 16.5415L192.903 15.5075L192.903 13.2844L184.292 13.2844L184.292 15.5075L186.597 16.5415L186.597 28.4843L184.292 29.5184L184.292 31.7415ZM212.899 31.7415L207.811 31.7415L199.571 17.7823L199.465 17.7823C199.483 18.2132 199.501 18.6526 199.518 19.1007C199.536 19.5315 199.554 19.971 199.571 20.419C199.607 20.8499 199.633 21.2893 199.651 21.7374C199.668 22.1682 199.686 22.6077 199.704 23.0558L199.704 31.7415L196.127 31.7415L196.127 13.2844L201.188 13.2844L209.401 27.1143L209.481 27.1143C209.463 26.6834 209.445 26.2612 209.428 25.8476C209.41 25.4168 209.392 24.9946 209.375 24.581C209.375 24.1501 209.366 23.7279 209.348 23.3143L209.295 22.0218L209.295 13.2844L212.899 13.2844L212.899 31.7415ZM217.68 31.7415L228.57 31.7415L228.57 28.5102L221.681 28.5102L221.681 23.7538L228.093 23.7538L228.093 20.5483L221.681 20.5483L221.681 16.4898L228.57 16.4898L228.57 13.2844L217.68 13.2844L217.68 31.7415ZM131.57 22.4871C131.57 23.7796 131.738 24.8911 132.074 25.8218C132.41 26.7524 132.931 27.4676 133.637 27.9673Q134.697 28.717 136.366 28.717C137.514 28.717 138.433 28.4671 139.122 27.9673C139.828 27.4676 140.341 26.7524 140.659 25.8218C140.994 24.8911 141.162 23.7796 141.162 22.4871C141.162 20.5397 140.791 19.0145 140.049 17.9116Q139.783 17.516 139.435 17.2149L139.435 17.2147L139.435 17.2147L139.435 17.2145Q138.328 16.2571 136.393 16.2571C135.262 16.2571 134.344 16.507 133.637 17.0068C132.931 17.5066 132.41 18.2218 132.074 19.1524C131.738 20.083 131.57 21.1945 131.57 22.4871Z" fill="#FFFFFF" fill-opacity="1.000000" fill-rule="evenodd"/>
</svg>
