<svg width="91.000000" height="91.000000" viewBox="0 0 91 91" fill="none" xmlns="http://www.w3.org/2000/svg" xmlns:xlink="http://www.w3.org/1999/xlink">
	<desc>
			Created with Pixso.
	</desc>
	<defs>
		<clipPath id="clip2_691">
			<rect id="icon.svg (5) 1" width="59.000000" height="59.000000" transform="translate(16.000000 16.000000)" fill="white" fill-opacity="0"/>
		</clipPath>
	</defs>
	<rect id="Rectangle 12" rx="5.000000" width="91.000000" height="91.000000" fill="#006C72" fill-opacity="1.000000"/>
	<rect id="icon.svg (5) 1" width="59.000000" height="59.000000" transform="translate(16.000000 16.000000)" fill="#FFFFFF" fill-opacity="0"/>
	<g clip-path="url(#clip2_691)">
		<path id="Vector" d="M69.8596 66.5614L21.1404 66.5614C18.7788 66.5614 16.8643 64.6469 16.8643 62.2853L16.8643 28.715C16.8643 26.3533 18.7788 24.4388 21.1404 24.4388L69.8596 24.4388C72.2212 24.4388 74.1357 26.3533 74.1357 28.715L74.1357 62.2853C74.1357 64.6469 72.2212 66.5614 69.8596 66.5614Z" fill="#E8EDF2" fill-opacity="1.000000" fill-rule="nonzero"/>
		<path id="Vector" d="M24.4824 66.5614L21.1406 66.5614C18.7783 66.5614 16.8643 64.6462 16.8643 62.285L16.8643 28.715C16.8643 26.3527 18.7783 24.4386 21.1406 24.4386L24.4824 24.4386C22.1201 24.4386 20.2061 26.3527 20.2061 28.715L20.2061 62.285C20.2061 64.6462 22.1201 66.5614 24.4824 66.5614Z" fill="#D9E7EC" fill-opacity="1.000000" fill-rule="nonzero"/>
		<path id="Vector" d="M46.051 29.8135L24.7266 29.8135C22.9841 29.8135 21.5715 31.2261 21.5715 32.9686L21.5715 58.2895C21.5715 60.0321 22.9841 61.4446 24.7266 61.4446L46.051 61.4446C47.7935 61.4446 49.2061 60.032 49.2061 58.2895L49.2061 32.9686C49.2061 31.226 47.7935 29.8135 46.051 29.8135Z" fill="#FFCE24" fill-opacity="1.000000" fill-rule="nonzero"/>
		<path id="Vector" d="M27.8196 61.4446L24.7266 61.4446C22.9844 61.4446 21.5715 60.0319 21.5715 58.2884L21.5715 32.9679C21.5715 31.2256 22.9844 29.8128 24.7266 29.8128L27.8196 29.8128C26.0759 29.8128 24.6643 31.2256 24.6643 32.9679L24.6643 58.2884C24.6643 60.0319 26.0759 61.4446 27.8196 61.4446Z" fill="#FFCE24" fill-opacity="1.000000" fill-rule="nonzero"/>
		<path id="Vector" d="M65.4805 24.4386L69.8594 24.4386C72.2217 24.4386 74.1357 26.3538 74.1357 28.715L74.1357 62.285C74.1357 64.6473 72.2217 66.5614 69.8594 66.5614L21.1406 66.5614C18.7783 66.5614 16.8643 64.6473 16.8643 62.285L16.8643 28.715C16.8643 26.3538 18.7783 24.4386 21.1406 24.4386L61.4473 24.4386" stroke="#000000" stroke-opacity="1.000000" stroke-width="2.000000" stroke-linejoin="round" stroke-linecap="round"/>
		<path id="Vector" d="M35.0542 53.8711C31.3757 53.8711 28.3938 56.853 28.3938 60.5314L28.3938 61.4446L41.7144 61.4446L41.7144 60.5314C41.7144 56.853 38.7324 53.8711 35.0542 53.8711Z" fill="#2ED1E2" fill-opacity="1.000000" fill-rule="nonzero"/>
		<path id="Vector" d="M37.0271 54.1676C34.3135 55.0088 32.3418 57.5394 32.3418 60.5308L32.3418 61.4446L28.3938 61.4446L28.3938 60.5308C28.3938 56.8525 31.375 53.8703 35.0532 53.8703C35.7412 53.8703 36.4038 53.974 37.0271 54.1676Z" fill="#02C7DD" fill-opacity="1.000000" fill-rule="nonzero"/>
		<path id="Vector" d="M38.1448 54.6302C40.2673 55.7434 41.7146 57.9686 41.7146 60.5314L41.7146 61.4452L28.3936 61.4452L28.3936 60.5314C28.3936 57.9697 29.8408 55.7446 31.9624 54.6314" stroke="#000000" stroke-opacity="1.000000" stroke-width="2.000000" stroke-linejoin="round" stroke-linecap="round"/>
		<path id="Vector" d="M41.2661 33.8135C40.1841 33.8135 39.1897 34.3743 38.4062 35.3112C37.0217 33.5834 34.8862 32.4755 32.49 32.4755C28.3162 32.4755 24.9326 35.8359 24.9326 39.981C24.9326 44.126 28.3162 47.4864 32.49 47.4864C34.5984 47.4864 36.5049 46.6285 37.8757 45.2454C38.7134 46.6221 39.9221 47.4864 41.2661 47.4864C43.7949 47.4864 45.8452 44.4255 45.8452 40.6499C45.8452 36.8743 43.7949 33.8135 41.2661 33.8135Z" fill="#7A8C98" fill-opacity="1.000000" fill-rule="nonzero"/>
		<path id="Vector" d="M35.1895 46.9917C34.3513 47.3112 33.4414 47.4857 32.4895 47.4857C28.3157 47.4857 24.9326 44.1255 24.9326 39.981C24.9326 35.8356 28.3157 32.4754 32.4895 32.4754C33.4414 32.4754 34.3523 32.6501 35.1909 32.9694C32.3508 34.0479 30.3333 36.78 30.3333 39.9808C30.3333 43.1804 32.3501 45.9125 35.1895 46.9917Z" fill="#596C76" fill-opacity="1.000000" fill-rule="nonzero"/>
		<path id="Vector" d="M25.689 36.7053C25.2051 37.6952 24.9331 38.806 24.9331 39.9803C24.9331 41.5095 25.3928 42.9315 26.1846 44.1172" stroke="#000000" stroke-opacity="1.000000" stroke-width="2.000000" stroke-linejoin="round" stroke-linecap="round"/>
		<path id="Vector" d="M28.2412 33.7726C29.4512 32.9544 30.9146 32.475 32.49 32.475C34.8857 32.475 37.021 33.5836 38.406 35.311C39.1897 34.3741 40.1841 33.8129 41.2661 33.8129C43.7944 33.8129 45.8455 36.8735 45.8455 40.6498C45.8455 42.2596 45.4722 43.7392 44.8489 44.9077" stroke="#000000" stroke-opacity="1.000000" stroke-width="2.000000" stroke-linejoin="round" stroke-linecap="round"/>
		<path id="Vector" d="M43.0979 48.1014L27.01 48.1014C25.8628 48.1014 24.9326 47.1714 24.9326 46.0241C24.9326 44.8768 25.8628 43.9468 27.01 43.9468L43.0979 43.9468C44.2451 43.9468 45.1753 44.8768 45.1753 46.0241C45.175 47.1714 44.2451 48.1014 43.0979 48.1014Z" fill="#FFCEBF" fill-opacity="1.000000" fill-rule="nonzero"/>
		<path id="Vector" d="M28.1919 43.9467C28.1802 43.9467 28.1741 43.9467 28.1741 43.9467L27.01 43.9467C26.4363 43.9467 25.917 44.1796 25.5408 44.5549C25.1655 44.931 24.9326 45.4503 24.9326 46.024C24.9326 47.1714 25.8625 48.1012 27.0098 48.1012L27.8479 48.1012" stroke="#000000" stroke-opacity="1.000000" stroke-width="2.000000" stroke-linejoin="round" stroke-linecap="round"/>
		<path id="Vector" d="M42.2607 48.1012L43.0979 48.1012C43.6714 48.1012 44.1909 47.8683 44.5669 47.493C44.9421 47.1169 45.175 46.5976 45.175 46.0239C45.175 44.8765 44.2454 43.9467 43.0979 43.9467L41.9343 43.9467L41.9336 43.9467" stroke="#000000" stroke-opacity="1.000000" stroke-width="2.000000" stroke-linejoin="round" stroke-linecap="round"/>
		<path id="Vector" d="M35.0537 55.3256C30.8357 55.3256 27.519 51.7188 27.8738 47.5152L28.1741 43.9467C28.1741 43.9467 34.9128 44.0132 38.46 39.6489C38.46 39.6489 39.2542 43.2894 41.9336 43.9467L41.9343 43.9467L42.2346 47.5152C42.5884 51.7188 39.2717 55.3256 35.0537 55.3256Z" fill="#FFEEE6" fill-opacity="1.000000" fill-rule="nonzero"/>
		<path id="Vector" d="M37.1946 55.0023C36.5198 55.2122 35.8005 55.3256 35.0537 55.3256C30.8357 55.3256 27.519 51.7188 27.8738 47.5152L28.1741 43.9467C28.1741 43.9467 29.7932 43.9628 31.8613 43.4656L31.5825 46.7845C31.26 50.6043 33.7102 53.9736 37.1946 55.0023Z" fill="#FFDFCF" fill-opacity="1.000000" fill-rule="nonzero"/>
		<path id="Vector" d="M27.8738 47.5152L28.1741 43.9467C28.1741 43.9467 34.9128 44.0132 38.46 39.6489C38.46 39.6489 39.2542 43.2894 41.9336 43.9467L41.9343 43.9467L42.2346 47.5152C42.5884 51.7188 39.2717 55.3256 35.0537 55.3256C30.8357 55.3256 27.519 51.7188 27.8738 47.5152Z" stroke="#000000" stroke-opacity="1.000000" stroke-width="2.000000" stroke-linejoin="round"/>
		<path id="Vector" d="M33.1943 45.3836L33.1943 46.6168" stroke="#000000" stroke-opacity="1.000000" stroke-width="2.000000" stroke-linejoin="round" stroke-linecap="round"/>
		<path id="Vector" d="M36.9141 45.3836L36.9141 46.6168" stroke="#000000" stroke-opacity="1.000000" stroke-width="2.000000" stroke-linejoin="round" stroke-linecap="round"/>
		<path id="Vector" d="M33.1948 49.5582C34.3579 50.174 35.7505 50.174 36.9136 49.5582" stroke="#000000" stroke-opacity="1.000000" stroke-width="2.000000" stroke-linejoin="round" stroke-linecap="round"/>
		<path id="Vector" d="M49.2058 55.7893L49.2058 58.2899C49.2058 60.0322 47.7932 61.445 46.0508 61.445L24.7266 61.445C22.9844 61.445 21.5715 60.0322 21.5715 58.2899L21.5715 32.9683C21.5715 31.226 22.9844 29.8132 24.7266 29.8132L46.0508 29.8132C47.7932 29.8132 49.2058 31.226 49.2058 32.9683L49.2058 51.7561" stroke="#000000" stroke-opacity="1.000000" stroke-width="2.000000" stroke-linejoin="round" stroke-linecap="round"/>
		<path id="Vector" d="M53.0112 32.8719L64.5715 32.8719" stroke="#000000" stroke-opacity="1.000000" stroke-width="2.000000" stroke-linejoin="round" stroke-linecap="round"/>
		<path id="Vector" d="M53.0112 36.9306L70.428 36.9306" stroke="#000000" stroke-opacity="1.000000" stroke-width="2.000000" stroke-linejoin="round" stroke-linecap="round"/>
		<path id="Vector" d="M53.0112 40.9893L56.1118 40.9893" stroke="#000000" stroke-opacity="1.000000" stroke-width="2.000000" stroke-linejoin="round" stroke-linecap="round"/>
		<path id="Vector" d="M53.0112 45.048L57.6736 45.048" stroke="#000000" stroke-opacity="1.000000" stroke-width="2.000000" stroke-linejoin="round" stroke-linecap="round"/>
		<path id="Vector" d="M62.7839 45.048L70.428 45.048" stroke="#000000" stroke-opacity="1.000000" stroke-width="2.000000" stroke-linejoin="round" stroke-linecap="round"/>
		<path id="Vector" d="M64.9768 54.1317L59.2698 55.5237L53.5627 54.1317C53.573 54.0809 53.5835 54.0314 53.595 53.9819C53.8416 52.8779 54.2104 51.8016 54.6943 50.7726C54.9663 50.1953 55.3926 49.7216 55.9111 49.3921C56.4297 49.0637 57.0405 48.8793 57.679 48.8793L62.6985 48.8793C63.2056 48.8793 63.6504 49.2203 63.783 49.7101L64.9768 54.1317Z" fill="#C8EFFE" fill-opacity="1.000000" fill-rule="nonzero"/>
		<path id="Vector" d="M69.6887 56.57L69.6887 57.3525C69.6887 58.3712 68.8625 59.1962 67.8438 59.1962L55.0667 59.1962C54.0479 59.1962 53.2217 58.3712 53.2217 57.3525C53.2217 56.267 53.3357 55.1872 53.5627 54.1317L64.9768 54.1317L68.1963 54.7597C69.063 54.9279 69.6887 55.6873 69.6887 56.57Z" fill="#FE646F" fill-opacity="1.000000" fill-rule="nonzero"/>
		<path id="Vector" d="M55.2397 59.1956L55.0669 59.1956C54.0481 59.1956 53.2219 58.3705 53.2219 57.3519C53.2219 56.2145 53.3474 55.084 53.5942 53.9813C53.8408 52.8773 54.2095 51.801 54.6934 50.7731C54.9653 50.1946 55.3928 49.7222 55.9114 49.3926C56.4299 49.063 57.0396 48.8787 57.678 48.8787L62.6978 48.8787C63.2058 48.8787 63.6506 49.2197 63.7832 49.7095L64.9771 54.131L68.1965 54.7591C69.0632 54.9285 69.6877 55.6867 69.6877 56.5694L69.6877 57.3519C69.6877 58.3705 68.8628 59.1956 67.844 59.1956L67.5212 59.1956" stroke="#000000" stroke-opacity="1.000000" stroke-width="2.000000" stroke-linejoin="round" stroke-linecap="round"/>
		<path id="Vector" d="M63.4639 59.1956L59.2969 59.1956" stroke="#000000" stroke-opacity="1.000000" stroke-width="2.000000" stroke-linejoin="round" stroke-linecap="round"/>
		<path id="Vector" d="M63.0037 59.1964L59.6423 59.1964" stroke="#000000" stroke-opacity="1.000000" stroke-width="2.000000" stroke-linejoin="round" stroke-linecap="round"/>
		<path id="Vector" d="M59.2966 59.1963C59.2966 60.3167 58.3884 61.225 57.2681 61.225C56.1475 61.225 55.2393 60.3167 55.2393 59.1963C55.2393 58.0759 56.1475 57.1676 57.2681 57.1676C58.3884 57.1676 59.2966 58.0759 59.2966 59.1963Z" fill="#7A8C98" fill-opacity="1.000000" fill-rule="evenodd"/>
		<path id="Vector" d="M67.5217 59.1963C67.5217 60.3167 66.6135 61.225 65.4932 61.225C64.3726 61.225 63.4644 60.3167 63.4644 59.1963C63.4644 58.0759 64.3726 57.1676 65.4932 57.1676C66.6135 57.1676 67.5217 58.0759 67.5217 59.1963Z" fill="#7A8C98" fill-opacity="1.000000" fill-rule="evenodd"/>
		<path id="Vector" d="M57.2681 61.225C56.1475 61.225 55.2393 60.3167 55.2393 59.1963C55.2393 58.0759 56.1475 57.1676 57.2681 57.1676C58.3884 57.1676 59.2966 58.0759 59.2966 59.1963C59.2966 60.3167 58.3884 61.225 57.2681 61.225Z" stroke="#000000" stroke-opacity="1.000000" stroke-width="2.000000" stroke-linejoin="round"/>
		<path id="Vector" d="M65.4932 61.225C64.3726 61.225 63.4644 60.3167 63.4644 59.1963C63.4644 58.0759 64.3726 57.1676 65.4932 57.1676C66.6135 57.1676 67.5217 58.0759 67.5217 59.1963C67.5217 60.3167 66.6135 61.225 65.4932 61.225Z" stroke="#000000" stroke-opacity="1.000000" stroke-width="2.000000" stroke-linejoin="round"/>
		<path id="Vector" d="M64.9763 54.1313L53.5623 54.1313" stroke="#000000" stroke-opacity="1.000000" stroke-width="2.000000" stroke-linejoin="round" stroke-linecap="round"/>
		<path id="Vector" d="M60.7974 48.8792L60.7974 54.1313" stroke="#000000" stroke-opacity="1.000000" stroke-width="2.000000" stroke-linejoin="round" stroke-linecap="round"/>
		<path id="Vector" d="M57.5632 48.8792L57.5632 54.1313" stroke="#000000" stroke-opacity="1.000000" stroke-width="2.000000" stroke-linejoin="round" stroke-linecap="round"/>
	</g>
</svg>
