<svg width="91.000000" height="91.000000" viewBox="0 0 91 91" fill="none" xmlns="http://www.w3.org/2000/svg" xmlns:xlink="http://www.w3.org/1999/xlink">
	<desc>
			Created with Pixso.
	</desc>
	<defs>
		<clipPath id="clip2_536">
			<rect id="icon.svg (3) 1" width="59.000000" height="59.000000" transform="translate(18.000000 16.000000)" fill="white" fill-opacity="0"/>
		</clipPath>
	</defs>
	<rect id="Rectangle 12" rx="5.000000" width="91.000000" height="91.000000" fill="#006C72" fill-opacity="1.000000"/>
	<rect id="icon.svg (3) 1" width="59.000000" height="59.000000" transform="translate(18.000000 16.000000)" fill="#FFFFFF" fill-opacity="0"/>
	<g clip-path="url(#clip2_536)">
		<path id="Vector" d="M62.9368 25.0574C64.1583 25.0574 65.1545 26.0538 65.1545 27.2752L65.1545 71.8026C65.1545 73.0242 64.1582 74.0204 62.9368 74.0204L22.2109 74.0204C20.9894 74.0204 19.9932 73.0242 19.9932 71.8026L19.9932 27.2753C19.9932 26.0538 20.9894 25.0576 22.2109 25.0576L62.9368 25.0574Z" fill="#EAB14D" fill-opacity="1.000000" fill-rule="evenodd"/>
		<path id="Vector" d="M61.061 28.575L24.0865 28.575C23.7692 28.575 23.5104 28.8337 23.5104 29.1511L23.5104 69.9271C23.5104 70.2444 23.7692 70.5032 24.0865 70.5032L61.0609 70.5032C61.3782 70.5032 61.6371 70.2444 61.6371 69.9271L61.6371 29.151C61.6371 28.8337 61.3782 28.575 61.061 28.575Z" fill="#F0F0F0" fill-opacity="1.000000" fill-rule="evenodd"/>
		<path id="Vector" d="M46.9496 25.0576L50.4106 25.0576C50.728 25.0576 50.9868 25.3163 50.9868 25.6337L50.9868 29.5817C50.9868 29.899 50.728 30.1578 50.4106 30.1578L34.7368 30.1578C34.4194 30.1578 34.1606 29.899 34.1606 29.5817L34.1606 25.6337C34.1606 25.3163 34.4194 25.0576 34.7368 25.0576L38.1979 25.0576C39.4867 25.0576 40.257 23.634 39.5522 22.5551C39.1825 21.989 38.9674 21.3124 38.9674 20.5858C38.9674 18.5941 40.5819 16.9795 42.5737 16.9795C44.5654 16.9795 46.1799 18.5941 46.1799 20.5858C46.1799 21.3124 45.965 21.989 45.5951 22.5551C44.8904 23.634 45.6608 25.0576 46.9496 25.0576Z" fill="#7A7785" fill-opacity="1.000000" fill-rule="evenodd"/>
		<path id="Vector" d="M32.5034 40.941L35.2087 40.941C37.4242 41.1 39.1877 42.9623 39.1877 45.2164L39.1877 47.5218C39.1877 47.7054 39.038 47.8552 38.8544 47.8552L28.8578 47.8552C28.6742 47.8552 28.5244 47.7054 28.5244 47.5218L28.5244 45.2164C28.5244 42.9621 30.2878 41.1 32.5034 40.941Z" fill="#FFD54F" fill-opacity="1.000000" fill-rule="evenodd"/>
		<path id="Vector" d="M36.8906 38.2381C36.8906 39.8936 35.532 41.2355 33.856 41.2355C32.1799 41.2355 30.8213 39.8936 30.8213 38.2381C30.8213 36.5826 32.1799 35.2406 33.856 35.2406C35.532 35.2406 36.8906 36.5826 36.8906 38.2381Z" fill="#FEDFC5" fill-opacity="1.000000" fill-rule="evenodd"/>
		<path id="Vector" d="M74.5664 41.3249L61.9695 63.1435L56.5635 65.8922L56.241 59.8361L68.8378 38.0176C69.7472 36.4423 71.7804 35.8976 73.3557 36.807C74.9312 37.7166 75.4758 39.7496 74.5664 41.3249Z" fill="#F1CB86" fill-opacity="1.000000" fill-rule="evenodd"/>
		<path id="Vector" d="M73.7133 42.8026L70.849 41.1489L66.6274 48.4608L62.1692 56.1828L59.1053 61.4897L61.9696 63.1433L62.1692 62.7975L66.6274 55.0755L73.7133 42.8026Z" fill="#ECBE6B" fill-opacity="1.000000" fill-rule="evenodd"/>
		<path id="Vector" d="M61.9695 63.1432L59.1053 61.4897L57.2617 60.4252L56.3658 59.908L56.2411 59.8359L56.2449 59.908L56.3225 61.3671L56.5223 65.1177L56.5636 65.892L57.2128 65.562L61.9695 63.1432Z" fill="#FFCE24" fill-opacity="1.000000" fill-rule="evenodd"/>
		<path id="Vector" d="M70.849 41.149L73.7131 42.8026L74.5664 41.3247C75.476 39.7495 74.931 37.7164 73.3558 36.8068C71.7804 35.8973 69.7474 36.442 68.8379 38.0174L67.9847 39.4952L70.849 41.149Z" fill="#FFCE24" fill-opacity="1.000000" fill-rule="evenodd"/>
		<path id="Vector" d="M64.2886 71.8021C64.2886 72.5488 63.6799 73.1559 62.9353 73.1559L22.2112 73.1559C21.4612 73.1559 20.8579 72.5488 20.8579 71.8021L20.8579 27.2752C20.8579 26.5289 21.4612 25.9219 22.2112 25.9219L33.2931 25.9219L33.2931 27.7106L23.5101 27.7106C23.0319 27.7106 22.646 28.0975 22.646 28.5747L22.646 70.5037C22.646 70.9808 23.032 71.3678 23.5101 71.3678L61.6362 71.3678C62.1146 71.3678 62.5004 70.9808 62.5004 70.5037L62.5004 63.8225C62.5874 63.7545 62.6581 63.6714 62.7179 63.5757L64.2885 60.8523L64.2885 71.8021L64.2886 71.8021ZM38.1954 25.9219L35.0214 25.9219L35.0214 29.2938L50.1196 29.2938L50.1196 25.9219L46.9457 25.9219C46.0326 25.9219 45.1957 25.4241 44.7609 24.6224C44.3315 23.8207 44.3695 22.8479 44.8695 22.0826C45.1631 21.6375 45.3152 21.1201 45.3152 20.5859C45.3152 19.0739 44.0814 17.8434 42.5706 17.8434C41.0596 17.8434 39.8313 19.0739 39.8313 20.5859C39.8313 21.1201 39.9834 21.6375 40.2715 22.0826C40.7715 22.8479 40.8149 23.8207 40.3801 24.6224C39.9454 25.4241 39.1085 25.9219 38.1954 25.9219ZM64.2886 27.2752C64.2886 26.5289 63.6799 25.9219 62.9353 25.9219L51.848 25.9219L51.848 27.7106L61.6364 27.7106C62.1147 27.7106 62.5005 28.0975 62.5005 28.5747L62.5005 47.2645L64.2886 44.166L64.2886 27.2752ZM61.6526 61.9622L72.528 43.1191L71.1638 42.3294L60.2831 61.173L61.6526 61.9622ZM57.4188 59.5192L58.7883 60.3089L69.6692 41.4654L68.2996 40.6757L57.4188 59.5192ZM60.1581 63.0953L57.1851 61.3817L57.3535 64.5193L60.1581 63.0953ZM34.1572 31.022C33.679 31.022 33.2931 30.6351 33.2931 30.1579L33.2931 29.4395L24.3743 29.4395L24.3743 69.6396L60.7721 69.6396L60.7721 64.7209L56.9513 66.6629C56.8317 66.7253 56.6958 66.7563 56.5599 66.7563C56.4132 66.7563 56.261 66.7172 56.1306 66.6406C55.8751 66.4943 55.712 66.2296 55.7012 65.9379L55.3751 59.8823C55.3698 59.7155 55.4077 59.548 55.4891 59.4045L60.772 50.2581L60.772 29.4395L51.8478 29.4395L51.8478 30.1579C51.8478 30.6351 51.462 31.022 50.9836 31.022L34.1572 31.022ZM72.9247 37.5554C74.0878 38.2288 74.49 39.7262 73.816 40.8925L73.3921 41.6218L69.1637 39.1788L69.5876 38.4495C70.2561 37.2831 71.7562 36.8815 72.9247 37.5554ZM73.7888 36.0587C71.7943 34.9087 69.2399 35.5935 68.0876 37.5853L66.0168 41.1725L66.0168 27.2752C66.0168 25.5757 64.6365 24.1931 62.9353 24.1931L46.9457 24.1931C46.5381 24.1931 46.3479 23.9181 46.2827 23.7995C46.2174 23.681 46.0924 23.3691 46.3153 23.0278C46.7935 22.3011 47.0436 21.4565 47.0436 20.5859C47.0436 18.1205 45.0381 16.1151 42.5706 16.1151C40.1085 16.1151 38.1031 18.1207 38.1031 20.5859C38.1031 21.4565 38.3531 22.3011 38.8259 23.0278C39.0488 23.3691 38.9238 23.681 38.864 23.7995C38.7987 23.918 38.6031 24.1931 38.1956 24.1931L22.2112 24.1931C20.51 24.1931 19.1296 25.5757 19.1296 27.2752L19.1296 71.8021C19.1296 73.5022 20.51 74.8848 22.2112 74.8848L62.9353 74.8848C64.6365 74.8848 66.0168 73.5021 66.0168 71.8021L66.0168 57.8588L75.3107 41.7572C76.4629 39.7648 75.7781 37.2087 73.7888 36.0587ZM43.7933 42.8692C43.7933 43.3464 44.1793 43.7333 44.6575 43.7333L56.6199 43.7333C57.0981 43.7333 57.484 43.3464 57.484 42.8692C57.484 42.392 57.0981 42.0051 56.6199 42.0051L44.6576 42.0051C44.1793 42.0051 43.7933 42.392 43.7933 42.8692ZM43.7933 48.6248C43.7933 49.1025 44.1793 49.4895 44.6575 49.4895L56.6199 49.4895C57.0981 49.4895 57.484 49.1025 57.484 48.6248C57.484 48.1476 57.0981 47.7607 56.6199 47.7607L44.6576 47.7607C44.1793 47.7607 43.7933 48.1476 43.7933 48.6248ZM43.7933 37.1136C43.7933 37.5908 44.1793 37.9777 44.6575 37.9777L56.6199 37.9777C57.0981 37.9777 57.484 37.5908 57.484 37.1136C57.484 36.6358 57.0981 36.2495 56.6199 36.2495L44.6576 36.2495C44.1793 36.2495 43.7933 36.6358 43.7933 37.1136ZM55.1796 60.136C55.1796 59.6588 54.7937 59.2713 54.3154 59.2713L28.5212 59.2713C28.0428 59.2713 27.6571 59.6588 27.6571 60.136C27.6571 60.6144 28.0428 61.0002 28.5212 61.0002L54.3156 61.0002C54.7937 61.0002 55.1796 60.6144 55.1796 60.136ZM57.484 54.381C57.484 53.9026 57.0981 53.5168 56.6199 53.5168L28.5212 53.5168C28.0428 53.5168 27.6571 53.9028 27.6571 54.381C27.6571 54.8582 28.0428 55.2457 28.5212 55.2457L56.6199 55.2457C57.0981 55.2456 57.484 54.8582 57.484 54.381ZM55.1796 65.8917C55.1796 65.415 54.7937 65.0275 54.3154 65.0275L28.5212 65.0275C28.0428 65.0275 27.6571 65.415 27.6571 65.8917C27.6571 66.3688 28.0428 66.7563 28.5212 66.7563L54.3156 66.7563C54.7937 66.7563 55.1796 66.3688 55.1796 65.8917ZM33.8529 36.1048C32.6572 36.1048 31.6843 37.062 31.6843 38.238C31.6843 39.4141 32.6571 40.3713 33.8529 40.3713C35.054 40.3713 36.0269 39.4141 36.0269 38.238C36.0269 37.062 35.054 36.1048 33.8529 36.1048ZM38.3204 45.2165C38.3204 43.486 37.0105 42.0251 35.3094 41.8196C34.8583 41.9995 34.3693 42.0995 33.8529 42.0995C33.342 42.0995 32.8475 41.9995 32.3964 41.8196C30.6952 42.0251 29.3854 43.486 29.3854 45.2165L29.3854 46.9904L38.3204 46.9904L38.3204 45.2165ZM29.9561 38.238C29.9561 39.0897 30.2332 39.8778 30.7115 40.5169C28.907 41.3278 27.6571 43.1431 27.6571 45.2165L27.6571 47.5214C27.6571 48.1823 28.1951 48.7193 28.8528 48.7193L38.853 48.7193C39.5161 48.7193 40.0487 48.1823 40.0487 47.5214L40.0487 45.2165C40.0487 43.1431 38.7987 41.3278 36.9998 40.5169C37.4725 39.8777 37.7552 39.0897 37.7552 38.238C37.7552 36.1086 36.0051 34.3765 33.8529 34.3765C31.7061 34.3765 29.9561 36.1086 29.9561 38.238Z" fill="#000000" fill-opacity="1.000000" fill-rule="evenodd"/>
	</g>
</svg>
