<svg width="91.000000" height="91.000000" viewBox="0 0 91 91" fill="none" xmlns="http://www.w3.org/2000/svg" xmlns:xlink="http://www.w3.org/1999/xlink">
	<desc>
			Created with Pixso.
	</desc>
	<defs>
		<clipPath id="clip2_769">
			<rect id="icon.svg (6) 1" width="59.000000" height="59.000000" transform="translate(16.000000 16.000000)" fill="white" fill-opacity="0"/>
		</clipPath>
	</defs>
	<rect id="Rectangle 12" rx="5.000000" width="91.000000" height="91.000000" fill="#006C72" fill-opacity="1.000000"/>
	<rect id="icon.svg (6) 1" width="59.000000" height="59.000000" transform="translate(16.000000 16.000000)" fill="#FFFFFF" fill-opacity="0"/>
	<g clip-path="url(#clip2_769)">
		<path id="Vector" d="M27.9844 29.8246L67.625 29.8246L67.625 51.0335L27.9844 51.0335L27.9844 29.8246Z" fill="#A0E557" fill-opacity="1.000000" fill-rule="evenodd"/>
		<path id="Vector" d="M54.667 40.4377C54.667 44.2563 51.5715 47.3518 47.7529 47.3518C43.9343 47.3518 40.8389 44.2563 40.8389 40.4377C40.8389 36.6192 43.9343 33.5237 47.7529 33.5237C51.5715 33.5237 54.667 36.6192 54.667 40.4377Z" fill="#00A570" fill-opacity="1.000000" fill-rule="evenodd"/>
		<path id="Vector" d="M67.625 34.9306L67.625 29.8246L62.519 29.8246C62.519 32.6446 64.8052 34.9306 67.625 34.9306Z" fill="#00A570" fill-opacity="1.000000" fill-rule="nonzero"/>
		<path id="Vector" d="M67.625 45.9268L67.625 51.0328L62.519 51.0328C62.519 48.2128 64.8052 45.9268 67.625 45.9268Z" fill="#00A570" fill-opacity="1.000000" fill-rule="nonzero"/>
		<path id="Vector" d="M27.9844 45.9268L27.9844 51.0328L33.0903 51.0328C33.0903 48.2128 30.8044 45.9268 27.9844 45.9268Z" fill="#00A570" fill-opacity="1.000000" fill-rule="nonzero"/>
		<path id="Vector" d="M59.5105 56.1693C56.249 55.0538 52.6846 55.2257 49.5454 56.6498L41.8027 60.1627C40.3396 60.8265 39.7065 62.5626 40.3989 64.0125C40.7061 64.6558 41.2258 65.1351 41.8376 65.4032L41.6396 65.4542L39.2942 65.4542C38.7722 65.4542 38.2581 65.3285 37.7949 65.0878L28.0864 60.0405C26.4683 59.1993 24.4746 59.856 23.6736 61.4944C22.9221 63.0309 23.4919 64.8867 24.9761 65.7367L36.6506 72.4238C38.2585 73.3448 40.1345 73.6836 41.9629 73.3829L66.4727 69.3535L66.4727 58.5503L59.5105 56.1693Z" fill="#FFCDAC" fill-opacity="1.000000" fill-rule="nonzero"/>
		<path id="Vector" d="M66.4727 54.6035L73.8477 54.6035L73.8477 73.8477L66.4727 73.8477L66.4727 54.6035Z" fill="#4DBAF6" fill-opacity="1.000000" fill-rule="evenodd"/>
		<path id="Vector" d="M24.5273 19.457L44.9158 19.457C46.207 19.457 47.4783 19.7766 48.6162 20.3871L66.2129 29.8284L44.2964 29.8284C43.5664 29.8284 42.9746 30.4202 42.9746 31.1503C42.9746 31.6166 43.2202 32.0485 43.6211 32.2866L48.2932 35.0644C49.4409 35.7468 49.855 37.2078 49.2356 38.391C48.6311 39.5458 47.2441 40.0471 46.0413 39.5454L35.2102 35.0294C32.7224 33.992 30.054 33.458 27.3584 33.458L24.5273 33.458L24.5273 19.457Z" fill="#FFCDAC" fill-opacity="1.000000" fill-rule="nonzero"/>
		<path id="Vector" d="M17.1523 17.1523L24.5273 17.1523L24.5273 36.3965L17.1523 36.3965L17.1523 17.1523Z" fill="#FFCE24" fill-opacity="1.000000" fill-rule="evenodd"/>
		<path id="Vector" d="M25.6797 36.3965L25.6797 34.6104L26.832 34.6104L26.832 51.033C26.832 51.6693 27.3481 52.1853 27.9844 52.1853L67.625 52.1853C68.2612 52.1853 68.7773 51.6693 68.7773 51.033L68.7773 29.8245C68.7773 29.1881 68.2612 28.6722 67.625 28.6722L66.4954 28.6722L50.3545 20.012C48.2727 18.8951 45.9236 18.3047 43.5613 18.3047L25.6797 18.3047L25.6797 17.1523C25.6797 16.5159 25.1636 16 24.5273 16L17.1523 16C16.5161 16 16 16.5159 16 17.1523L16 36.3965C16 37.0329 16.5161 37.5488 17.1523 37.5488L24.5273 37.5488C25.1636 37.5488 25.6797 37.0329 25.6797 36.3965ZM47.0215 40.8963C47.1882 40.8963 47.3538 40.8846 47.5173 40.8622C47.5935 40.8779 47.6724 40.8865 47.7532 40.8865C48.3354 40.8865 48.8274 41.2842 48.8274 41.7548C48.8274 42.2254 48.3354 42.623 47.7532 42.623C47.4048 42.623 47.0752 42.4824 46.8718 42.2468C46.4561 41.7651 45.7283 41.7115 45.2466 42.1276C44.7649 42.5435 44.7114 43.2711 45.1274 43.7528C45.5212 44.209 46.0322 44.5455 46.6033 44.739C46.6274 45.354 47.1323 45.8456 47.7532 45.8456C48.3745 45.8456 48.8796 45.3536 48.9033 44.7382C50.2019 44.2953 51.1321 43.1252 51.1321 41.7546C51.1321 40.8062 50.686 39.9541 49.9812 39.3722C50.0818 39.2318 50.1741 39.0827 50.2566 38.925C50.9055 37.6855 50.7764 36.2365 50.0315 35.1498C52.074 36.0366 53.5063 38.0722 53.5063 40.4371C53.5063 43.6141 50.9216 46.1988 47.7446 46.1988C44.5676 46.1988 41.9829 43.6141 41.9829 40.4371C41.9829 40.003 42.032 39.5768 42.126 39.1612L45.5977 40.6088C46.0642 40.8035 46.5471 40.8963 47.0215 40.8963ZM47.7446 48.5037C52.1924 48.5037 55.811 44.8851 55.811 40.4373C55.811 35.9895 52.1924 32.3709 47.7446 32.3709C47.2437 32.3709 46.7437 32.4201 46.2542 32.5116L44.21 31.2962C44.1587 31.2658 44.127 31.2098 44.127 31.1503C44.127 31.0568 44.2029 30.9807 44.2966 30.9807L61.4756 30.9807C61.9497 33.5072 63.9458 35.5024 66.4727 35.9749L66.4727 44.8827C63.9443 45.3554 61.9475 47.3523 61.4749 49.8806L34.1348 49.8806C33.6619 47.3523 31.665 45.3554 29.1367 44.8827L29.1367 34.7242C31.2051 34.9371 33.2239 35.4498 35.1619 36.2579L39.9766 38.2653C39.7798 38.9684 39.6782 39.6951 39.6782 40.4373C39.6782 44.8853 43.2969 48.5037 47.7446 48.5037ZM66.4727 30.9769L66.4727 33.6066C65.219 33.2238 64.228 32.2339 63.844 30.9807L66.2129 30.9807C66.2427 30.9807 66.2725 30.9792 66.3018 30.9769L66.4727 30.9769ZM29.1367 47.251C30.3916 47.6342 31.3833 48.6257 31.7664 49.8806L29.1367 49.8806L29.1367 47.251ZM63.843 49.8806C64.2261 48.6257 65.2178 47.6342 66.4727 47.251L66.4727 49.8806L63.843 49.8806ZM43.5613 20.6094C45.5447 20.6094 47.5171 21.1051 49.2651 22.0429L61.6206 28.6722L46.7837 28.6722C46.7583 28.6722 46.7336 28.6744 46.709 28.676L44.2964 28.676C42.9321 28.676 41.822 29.7859 41.822 31.1503C41.822 32.0185 42.2856 32.8334 43.032 33.2772L47.7041 36.0549C48.3259 36.4245 48.55 37.2159 48.2146 37.8566C47.885 38.4867 47.1411 38.7557 46.4846 38.4819L36.0488 34.1307C33.1445 32.9197 30.0764 32.3058 26.9297 32.3058L25.6797 32.3058L25.6797 20.6094L43.5613 20.6094ZM23.375 35.2441L18.3047 35.2441L18.3047 18.3047L23.375 18.3047L23.375 35.2441Z" fill="#000000" fill-opacity="1.000000" fill-rule="nonzero"/>
		<path id="Vector" d="M20.8474 31.1725L20.8323 31.1725C20.196 31.1725 19.6799 31.6885 19.6799 32.3249C19.6799 32.9613 20.196 33.4772 20.8323 33.4772L20.8474 33.4772C21.4836 33.4772 21.9998 32.9613 21.9998 32.3249C21.9998 31.6885 21.4839 31.1725 20.8474 31.1725Z" fill="#000000" fill-opacity="1.000000" fill-rule="nonzero"/>
		<path id="Vector" d="M73.8477 53.4512L66.4727 53.4512C65.8364 53.4512 65.3203 53.9672 65.3203 54.6035L65.3203 56.9383L59.8835 55.079C56.3301 53.8636 52.4895 54.0488 49.0691 55.6005L41.3267 59.1133C40.335 59.5633 39.583 60.3747 39.21 61.3981C38.8628 62.3499 38.885 63.3721 39.2673 64.301C38.9409 64.2967 38.616 64.2158 38.3264 64.0652L28.6179 59.018C27.5576 58.4665 26.3484 58.369 25.2131 58.7429C24.0779 59.1169 23.1636 59.9142 22.6384 60.9879C21.6235 63.0631 22.3987 65.5881 24.4031 66.7365L36.0779 73.4235C37.4763 74.2246 39.0632 74.6409 40.6628 74.6409C41.1589 74.6409 41.6567 74.6007 42.1499 74.5196L65.3203 70.7108L65.3203 73.8477C65.3203 74.484 65.8364 75 66.4727 75L73.8477 75C74.4841 75 75 74.484 75 73.8477L75 54.6035C75 53.9672 74.4841 53.4512 73.8477 53.4512ZM41.7761 72.2459C40.2136 72.5026 38.5972 72.2109 37.2234 71.424L25.5488 64.7368C24.5947 64.1903 24.2258 62.9884 24.7087 62.0007C24.9587 61.4896 25.3938 61.1101 25.9343 60.9322C26.4746 60.7542 27.05 60.8006 27.5549 61.0632L37.2634 66.1105C37.8882 66.4351 38.5903 66.6068 39.2942 66.6068L41.6396 66.6068C41.6785 66.6068 41.7168 66.6047 41.7544 66.601C42.1509 66.7292 42.5671 66.7985 42.9905 66.7985C43.4185 66.7985 43.8525 66.7299 44.2776 66.5861L52.0151 63.968C52.6179 63.764 52.9412 63.11 52.7373 62.5071C52.5332 61.9044 51.8794 61.5809 51.2764 61.7848L43.5391 64.4028C42.7158 64.6813 41.8132 64.3002 41.439 63.5162C41.2385 63.0965 41.2158 62.6249 41.375 62.1879C41.5344 61.7509 41.8555 61.4045 42.2791 61.2123L50.0215 57.6995C52.9048 56.3915 56.1421 56.2352 59.1377 57.2599L65.3203 59.3741L65.3203 68.3752L41.7761 72.2459ZM72.6953 72.6953L67.625 72.6953L67.625 55.7559L72.6953 55.7559L72.6953 72.6953Z" fill="#000000" fill-opacity="1.000000" fill-rule="nonzero"/>
		<path id="Vector" d="M70.1528 59.8275L70.168 59.8275C70.8042 59.8275 71.3203 59.3115 71.3203 58.6751C71.3203 58.0388 70.8042 57.5228 70.168 57.5228L70.1528 57.5228C69.5166 57.5228 69.0005 58.0388 69.0005 58.6751C69.0005 59.3115 69.5164 59.8275 70.1528 59.8275Z" fill="#000000" fill-opacity="1.000000" fill-rule="nonzero"/>
		<path id="Vector" d="M37.0464 39.2903L34.6108 39.2903C33.9746 39.2903 33.4585 39.8062 33.4585 40.4426C33.4585 41.079 33.9746 41.595 34.6108 41.595L37.0464 41.595C37.6829 41.595 38.1987 41.079 38.1987 40.4426C38.1987 39.8062 37.6829 39.2903 37.0464 39.2903Z" fill="#000000" fill-opacity="1.000000" fill-rule="nonzero"/>
		<path id="Vector" d="M58.447 41.595L60.8826 41.595C61.519 41.595 62.0349 41.079 62.0349 40.4426C62.0349 39.8062 61.519 39.2903 60.8826 39.2903L58.447 39.2903C57.8108 39.2903 57.2947 39.8062 57.2947 40.4426C57.2947 41.079 57.8105 41.595 58.447 41.595Z" fill="#000000" fill-opacity="1.000000" fill-rule="nonzero"/>
		<path id="Vector" d="M33.6958 25.2188L42.2395 25.2188C42.8757 25.2188 43.3918 24.7028 43.3918 24.0664C43.3918 23.43 42.8757 22.9141 42.2395 22.9141L33.6958 22.9141C33.0596 22.9141 32.5435 23.43 32.5435 24.0664C32.5435 24.7028 33.0596 25.2188 33.6958 25.2188Z" fill="#000000" fill-opacity="1.000000" fill-rule="nonzero"/>
		<path id="Vector" d="M29.6357 25.2188C29.9387 25.2188 30.2361 25.0955 30.4504 24.8811C30.6658 24.6667 30.7881 24.3694 30.7881 24.0664C30.7881 23.7634 30.6658 23.4661 30.4504 23.2517C30.2361 23.0374 29.9399 22.9141 29.6357 22.9141C29.3328 22.9141 29.0354 23.0374 28.821 23.2517C28.6067 23.4661 28.4834 23.7634 28.4834 24.0664C28.4834 24.3694 28.6067 24.6667 28.821 24.8811C29.0354 25.0955 29.3328 25.2188 29.6357 25.2188Z" fill="#000000" fill-opacity="1.000000" fill-rule="nonzero"/>
	</g>
</svg>
