<svg width="91.000000" height="91.000000" viewBox="0 0 91 91" fill="none" xmlns="http://www.w3.org/2000/svg" xmlns:xlink="http://www.w3.org/1999/xlink">
	<desc>
			Created with Pixso.
	</desc>
	<defs>
		<clipPath id="clip2_633">
			<rect id="icon.svg (4) 1" width="59.000000" height="59.000000" transform="translate(16.000000 16.000000)" fill="white" fill-opacity="0"/>
		</clipPath>
	</defs>
	<rect id="Rectangle 12" rx="5.000000" width="91.000000" height="91.000000" fill="#006C72" fill-opacity="1.000000"/>
	<rect id="icon.svg (4) 1" width="59.000000" height="59.000000" transform="translate(16.000000 16.000000)" fill="#FFFFFF" fill-opacity="0"/>
	<g clip-path="url(#clip2_633)">
		<path id="Vector" d="M59.4434 75L25.5645 75C22.1074 75 19.3418 72.1191 19.3418 68.6621L19.3418 28.2148C19.3418 24.7578 22.1074 21.877 25.5645 21.877L26.0254 21.877C26.4863 21.877 26.832 22.2227 26.832 22.6836C26.832 23.0293 26.6016 23.375 26.1406 23.4902L30.9805 67.8555L64.2832 67.8555C64.3984 67.625 64.6289 67.3945 64.9746 67.3945C65.4355 67.3945 65.7812 67.7402 65.7812 68.2012L65.7812 68.6621C65.7812 72.1191 62.9004 75 59.4434 75Z" fill="#FCBE37" fill-opacity="1.000000" fill-rule="evenodd"/>
		<path id="Vector" d="M24.0664 22.1074C24.5273 21.9922 25.1035 21.877 25.5645 21.877L26.0254 21.877C26.4863 21.877 26.832 22.2227 26.832 22.6836C26.832 23.0293 26.6016 23.375 26.1406 23.4902L30.9805 67.8555L64.2832 67.8555C64.3984 67.625 64.6289 67.3945 64.9746 67.3945C65.4355 67.3945 65.7812 67.7402 65.7812 68.2012L65.7812 68.6621C65.7812 69.123 65.666 69.6992 65.5508 70.1602C65.5508 70.1602 65.4355 70.1602 65.3203 70.1602L31.5566 70.1602C27.5234 70.1602 24.0664 66.9336 24.0664 62.7852L24.0664 22.3379C24.0664 22.2227 24.0664 22.1074 24.0664 22.1074Z" fill="#FFCE24" fill-opacity="1.000000" fill-rule="evenodd"/>
		<path id="Vector" d="M65.3203 69.0078L31.5566 69.0078C28.0996 69.0078 25.2188 66.2422 25.2188 62.7852L25.2188 22.3379C25.2188 18.8809 28.0996 16 31.5566 16L60.7109 16C61.1719 16 61.5176 16.3457 61.5176 16.8066C61.5176 17.2676 61.1719 17.6133 60.7109 17.6133L60.7109 26.832L70.0449 26.832C70.1602 26.4863 70.3906 26.1406 70.8516 26.1406C71.3125 26.1406 71.6582 26.4863 71.6582 26.9473L71.6582 62.7852C71.6582 64.5137 70.9668 66.0117 69.8145 67.1641C68.6621 68.3164 67.0488 69.0078 65.3203 69.0078Z" fill="#EFEDEF" fill-opacity="1.000000" fill-rule="evenodd"/>
		<path id="Vector" d="M60.7109 19.6133L60.7109 17.6133C61.1719 17.6133 61.5176 17.2676 61.5176 16.8066C61.5176 16.3457 61.1719 16 60.7109 16L31.5566 16C28.0996 16 25.2188 18.8809 25.2188 22.3379L25.2188 62.7852C25.2188 66.2422 28.0996 69.0078 31.5566 69.0078L65.3203 69.0078C67.0488 69.0078 68.6621 68.3164 69.8145 67.1641C70.9668 66.0117 71.6582 64.5137 71.6582 62.7852L71.6582 26.9473C71.6582 26.4863 71.3125 26.1406 70.8516 26.1406C70.3906 26.1406 70.1602 26.4863 70.0449 26.832L60.7109 26.832L60.7109 19.6133ZM69.6582 28.832L69.6582 62.7852Q69.6582 63.5179 69.4263 64.168Q69.118 65.032 68.4003 65.7499Q67.8224 66.3277 67.1256 66.6401Q66.3054 67.0078 65.3203 67.0078L31.5566 67.0078Q30.6544 67.0078 29.8821 66.6911Q29.1219 66.3794 28.4875 65.7609Q27.8132 65.1035 27.4973 64.3044Q27.2188 63.5999 27.2188 62.7852L27.2188 22.3379Q27.2188 21.5488 27.4762 20.8551Q27.7943 19.998 28.5055 19.2867Q29.2168 18.5756 30.0739 18.2574Q30.7675 18 31.5566 18L58.7109 18L58.7109 28.832L69.6582 28.832Z" fill="#000000" fill-opacity="1.000000" fill-rule="evenodd"/>
		<path id="Vector" d="M70.8516 27.7539L60.7109 27.7539C60.25 27.7539 59.9043 27.4082 59.9043 26.9473L59.9043 16.8066C59.9043 16.4609 60.1348 16.2305 60.3652 16.1152C60.7109 15.8848 61.0566 16 61.2871 16.2305L71.4277 26.3711C71.6582 26.6016 71.6582 26.9473 71.543 27.293C71.4277 27.5234 71.1973 27.7539 70.8516 27.7539Z" fill="#B5ADB6" fill-opacity="1.000000" fill-rule="evenodd"/>
		<path id="Vector" d="M70.8516 27.7539L60.7109 27.7539C60.25 27.7539 59.9043 27.4082 59.9043 26.9473L59.9043 16.8066C59.9043 16.4609 60.1348 16.2305 60.3652 16.1152C60.7109 15.8848 61.0566 16 61.2871 16.2305L71.4277 26.3711C71.6582 26.6016 71.6582 26.9473 71.543 27.293C71.4277 27.5234 71.1973 27.7539 70.8516 27.7539Z" fill="#000000" fill-opacity="1.000000" fill-rule="evenodd"/>
		<path id="Vector" d="M48.4961 25.1035L31.9023 25.1035C31.4414 25.1035 31.0957 24.7578 31.0957 24.2969C31.0957 23.8359 31.4414 23.4902 31.9023 23.4902L48.4961 23.4902C48.957 23.4902 49.3027 23.8359 49.3027 24.2969C49.3027 24.7578 48.957 25.1035 48.4961 25.1035Z" fill="#B5ADB6" fill-opacity="1.000000" fill-rule="evenodd"/>
		<path id="Vector" d="M64.9746 31.2109L31.9023 31.2109C31.4414 31.2109 31.0957 30.8652 31.0957 30.4043C31.0957 29.9434 31.4414 29.5977 31.9023 29.5977L64.9746 29.5977C65.4355 29.5977 65.7812 29.9434 65.7812 30.4043C65.7812 30.8652 65.4355 31.2109 64.9746 31.2109Z" fill="#B5ADB6" fill-opacity="1.000000" fill-rule="evenodd"/>
		<path id="Vector" d="M64.9746 37.2031L31.9023 37.2031C31.4414 37.2031 31.0957 36.8574 31.0957 36.3965C31.0957 35.9355 31.4414 35.5898 31.9023 35.5898L64.9746 35.5898C65.4355 35.5898 65.7812 35.9355 65.7812 36.3965C65.7812 36.8574 65.4355 37.2031 64.9746 37.2031Z" fill="#B5ADB6" fill-opacity="1.000000" fill-rule="evenodd"/>
		<path id="Vector" d="M64.9746 43.3105L31.9023 43.3105C31.4414 43.3105 31.0957 42.9648 31.0957 42.5039C31.0957 42.043 31.4414 41.6973 31.9023 41.6973L64.9746 41.6973C65.4355 41.6973 65.7812 42.043 65.7812 42.5039C65.7812 42.9648 65.4355 43.3105 64.9746 43.3105Z" fill="#B5ADB6" fill-opacity="1.000000" fill-rule="evenodd"/>
		<path id="Vector" d="M64.9746 49.418L31.9023 49.418C31.4414 49.418 31.0957 49.0723 31.0957 48.6113C31.0957 48.1504 31.4414 47.8047 31.9023 47.8047L64.9746 47.8047C65.4355 47.8047 65.7812 48.1504 65.7812 48.6113C65.7812 49.0723 65.4355 49.418 64.9746 49.418Z" fill="#B5ADB6" fill-opacity="1.000000" fill-rule="evenodd"/>
		<path id="Vector" d="M64.9746 55.4102L31.9023 55.4102C31.4414 55.4102 31.0957 55.0645 31.0957 54.6035C31.0957 54.1426 31.4414 53.7969 31.9023 53.7969L64.9746 53.7969C65.4355 53.7969 65.7812 54.1426 65.7812 54.6035C65.7812 55.0645 65.4355 55.4102 64.9746 55.4102Z" fill="#B5ADB6" fill-opacity="1.000000" fill-rule="evenodd"/>
		<path id="Vector" d="M64.9746 61.5176L31.9023 61.5176C31.4414 61.5176 31.0957 61.1719 31.0957 60.7109C31.0957 60.25 31.4414 59.9043 31.9023 59.9043L64.9746 59.9043C65.4355 59.9043 65.7812 60.25 65.7812 60.7109C65.7812 61.1719 65.4355 61.5176 64.9746 61.5176Z" fill="#B5ADB6" fill-opacity="1.000000" fill-rule="evenodd"/>
	</g>
</svg>
